<mxfile host="app.diagrams.net" agent="Mozilla/5.0 (Windows NT 10.0; Win64; x64) AppleWebKit/537.36 (KHTML, like Gecko) Chrome/131.0.0.0 Safari/537.36" version="26.0.15" pages="2">
  <diagram name="Sida-1" id="bpndJ_E99A24D7XNAE1G">
    <mxGraphModel grid="0" page="0" gridSize="10" guides="1" tooltips="1" connect="1" arrows="1" fold="1" pageScale="1" pageWidth="827" pageHeight="1169" math="0" shadow="0">
      <root>
        <mxCell id="0" />
        <mxCell id="1" parent="0" />
        <mxCell id="K9HIL502Y1lgaBaczekw-31" value="CarController" style="swimlane;fontStyle=1;align=center;verticalAlign=top;childLayout=stackLayout;horizontal=1;startSize=26;horizontalStack=0;resizeParent=1;resizeParentMax=0;resizeLast=0;collapsible=1;marginBottom=0;whiteSpace=wrap;html=1;" vertex="1" parent="1">
          <mxGeometry x="504" y="629" width="211" height="166" as="geometry" />
        </mxCell>
        <mxCell id="K9HIL502Y1lgaBaczekw-32" value="- delay: int&lt;div&gt;- timer: Timer&lt;/div&gt;&lt;div&gt;&amp;nbsp;frame: CarView&lt;/div&gt;&lt;div&gt;cars: ArrayList&amp;lt;Cars&amp;gt;&lt;/div&gt;" style="text;strokeColor=none;fillColor=none;align=left;verticalAlign=top;spacingLeft=4;spacingRight=4;overflow=hidden;rotatable=0;points=[[0,0.5],[1,0.5]];portConstraint=eastwest;whiteSpace=wrap;html=1;" vertex="1" parent="K9HIL502Y1lgaBaczekw-31">
          <mxGeometry y="26" width="211" height="62" as="geometry" />
        </mxCell>
        <mxCell id="K9HIL502Y1lgaBaczekw-33" value="" style="line;strokeWidth=1;fillColor=none;align=left;verticalAlign=middle;spacingTop=-1;spacingLeft=3;spacingRight=3;rotatable=0;labelPosition=right;points=[];portConstraint=eastwest;strokeColor=inherit;" vertex="1" parent="K9HIL502Y1lgaBaczekw-31">
          <mxGeometry y="88" width="211" height="8" as="geometry" />
        </mxCell>
        <mxCell id="K9HIL502Y1lgaBaczekw-34" value="+ gas(int): void&lt;div&gt;+ brake(int): void&lt;/div&gt;&lt;div&gt;- isCarOutOfBounds(int, int): boolean&lt;/div&gt;" style="text;strokeColor=none;fillColor=none;align=left;verticalAlign=top;spacingLeft=4;spacingRight=4;overflow=hidden;rotatable=0;points=[[0,0.5],[1,0.5]];portConstraint=eastwest;whiteSpace=wrap;html=1;" vertex="1" parent="K9HIL502Y1lgaBaczekw-31">
          <mxGeometry y="96" width="211" height="70" as="geometry" />
        </mxCell>
        <mxCell id="K9HIL502Y1lgaBaczekw-35" value="CarView" style="swimlane;fontStyle=1;align=center;verticalAlign=top;childLayout=stackLayout;horizontal=1;startSize=26;horizontalStack=0;resizeParent=1;resizeParentMax=0;resizeLast=0;collapsible=1;marginBottom=0;whiteSpace=wrap;html=1;" vertex="1" parent="1">
          <mxGeometry x="764" y="470" width="194" height="108" as="geometry" />
        </mxCell>
        <mxCell id="K9HIL502Y1lgaBaczekw-36" value="carC: CarController&lt;div&gt;drawPanel: DrawPanel&lt;/div&gt;" style="text;strokeColor=none;fillColor=none;align=left;verticalAlign=top;spacingLeft=4;spacingRight=4;overflow=hidden;rotatable=0;points=[[0,0.5],[1,0.5]];portConstraint=eastwest;whiteSpace=wrap;html=1;" vertex="1" parent="K9HIL502Y1lgaBaczekw-35">
          <mxGeometry y="26" width="194" height="49" as="geometry" />
        </mxCell>
        <mxCell id="K9HIL502Y1lgaBaczekw-37" value="" style="line;strokeWidth=1;fillColor=none;align=left;verticalAlign=middle;spacingTop=-1;spacingLeft=3;spacingRight=3;rotatable=0;labelPosition=right;points=[];portConstraint=eastwest;strokeColor=inherit;" vertex="1" parent="K9HIL502Y1lgaBaczekw-35">
          <mxGeometry y="75" width="194" height="8" as="geometry" />
        </mxCell>
        <mxCell id="K9HIL502Y1lgaBaczekw-38" value="- initComponents(String): void" style="text;strokeColor=none;fillColor=none;align=left;verticalAlign=top;spacingLeft=4;spacingRight=4;overflow=hidden;rotatable=0;points=[[0,0.5],[1,0.5]];portConstraint=eastwest;whiteSpace=wrap;html=1;" vertex="1" parent="K9HIL502Y1lgaBaczekw-35">
          <mxGeometry y="83" width="194" height="25" as="geometry" />
        </mxCell>
        <mxCell id="K9HIL502Y1lgaBaczekw-39" value="DrawPanel" style="swimlane;fontStyle=1;align=center;verticalAlign=top;childLayout=stackLayout;horizontal=1;startSize=26;horizontalStack=0;resizeParent=1;resizeParentMax=0;resizeLast=0;collapsible=1;marginBottom=0;whiteSpace=wrap;html=1;" vertex="1" parent="1">
          <mxGeometry x="1051" y="544" width="223" height="166" as="geometry" />
        </mxCell>
        <mxCell id="K9HIL502Y1lgaBaczekw-40" value="carImages: List&amp;lt;BufferedImage&amp;gt;&lt;div&gt;carPoints: List&amp;lt;Point&amp;gt;&lt;/div&gt;&lt;div&gt;volvoWorkshopImage: BufferedImage&lt;/div&gt;&lt;div&gt;volvoWorkshopPoint: Point&lt;/div&gt;" style="text;strokeColor=none;fillColor=none;align=left;verticalAlign=top;spacingLeft=4;spacingRight=4;overflow=hidden;rotatable=0;points=[[0,0.5],[1,0.5]];portConstraint=eastwest;whiteSpace=wrap;html=1;" vertex="1" parent="K9HIL502Y1lgaBaczekw-39">
          <mxGeometry y="26" width="223" height="75" as="geometry" />
        </mxCell>
        <mxCell id="K9HIL502Y1lgaBaczekw-41" value="" style="line;strokeWidth=1;fillColor=none;align=left;verticalAlign=middle;spacingTop=-1;spacingLeft=3;spacingRight=3;rotatable=0;labelPosition=right;points=[];portConstraint=eastwest;strokeColor=inherit;" vertex="1" parent="K9HIL502Y1lgaBaczekw-39">
          <mxGeometry y="101" width="223" height="8" as="geometry" />
        </mxCell>
        <mxCell id="K9HIL502Y1lgaBaczekw-42" value="&lt;div&gt;moveit(int, int, int): void&lt;/div&gt;&lt;div&gt;loadCarToWorkshop(): void&lt;/div&gt;# paintComponent(Graphics): void" style="text;strokeColor=none;fillColor=none;align=left;verticalAlign=top;spacingLeft=4;spacingRight=4;overflow=hidden;rotatable=0;points=[[0,0.5],[1,0.5]];portConstraint=eastwest;whiteSpace=wrap;html=1;" vertex="1" parent="K9HIL502Y1lgaBaczekw-39">
          <mxGeometry y="109" width="223" height="57" as="geometry" />
        </mxCell>
        <mxCell id="K9HIL502Y1lgaBaczekw-50" value="TimerListener" style="swimlane;fontStyle=1;align=center;verticalAlign=top;childLayout=stackLayout;horizontal=1;startSize=26;horizontalStack=0;resizeParent=1;resizeParentMax=0;resizeLast=0;collapsible=1;marginBottom=0;whiteSpace=wrap;html=1;" vertex="1" parent="1">
          <mxGeometry x="529" y="354" width="249" height="60" as="geometry" />
        </mxCell>
        <mxCell id="K9HIL502Y1lgaBaczekw-53" value="+ actionPerformed(ActionEvent): void" style="text;strokeColor=none;fillColor=none;align=left;verticalAlign=top;spacingLeft=4;spacingRight=4;overflow=hidden;rotatable=0;points=[[0,0.5],[1,0.5]];portConstraint=eastwest;whiteSpace=wrap;html=1;" vertex="1" parent="K9HIL502Y1lgaBaczekw-50">
          <mxGeometry y="26" width="249" height="26" as="geometry" />
        </mxCell>
        <mxCell id="K9HIL502Y1lgaBaczekw-52" value="" style="line;strokeWidth=1;fillColor=none;align=left;verticalAlign=middle;spacingTop=-1;spacingLeft=3;spacingRight=3;rotatable=0;labelPosition=right;points=[];portConstraint=eastwest;strokeColor=inherit;" vertex="1" parent="K9HIL502Y1lgaBaczekw-50">
          <mxGeometry y="52" width="249" height="8" as="geometry" />
        </mxCell>
        <mxCell id="K9HIL502Y1lgaBaczekw-55" value="&lt;b&gt;ActionListener&lt;/b&gt;" style="html=1;whiteSpace=wrap;" vertex="1" parent="1">
          <mxGeometry x="645" y="238" width="110" height="25" as="geometry" />
        </mxCell>
        <mxCell id="K9HIL502Y1lgaBaczekw-57" value="" style="endArrow=block;dashed=1;endFill=0;endSize=12;html=1;rounded=0;fontSize=12;curved=1;entryX=0.5;entryY=1;entryDx=0;entryDy=0;" edge="1" parent="1" source="K9HIL502Y1lgaBaczekw-50" target="K9HIL502Y1lgaBaczekw-55">
          <mxGeometry width="160" relative="1" as="geometry">
            <mxPoint x="1130" y="270" as="sourcePoint" />
            <mxPoint x="1206" y="191" as="targetPoint" />
          </mxGeometry>
        </mxCell>
        <mxCell id="K9HIL502Y1lgaBaczekw-61" value="" style="endArrow=open;startArrow=circlePlus;endFill=0;startFill=0;endSize=8;html=1;rounded=0;fontSize=12;curved=1;exitX=0.5;exitY=0;exitDx=0;exitDy=0;entryX=0.494;entryY=1.077;entryDx=0;entryDy=0;entryPerimeter=0;" edge="1" parent="1" source="K9HIL502Y1lgaBaczekw-31" target="K9HIL502Y1lgaBaczekw-53">
          <mxGeometry width="160" relative="1" as="geometry">
            <mxPoint x="735" y="467" as="sourcePoint" />
            <mxPoint x="895" y="467" as="targetPoint" />
          </mxGeometry>
        </mxCell>
        <mxCell id="K9HIL502Y1lgaBaczekw-70" value="Use" style="endArrow=open;endSize=12;dashed=1;html=1;rounded=0;fontSize=12;curved=1;entryX=0.004;entryY=0.187;entryDx=0;entryDy=0;entryPerimeter=0;exitX=0.981;exitY=0.323;exitDx=0;exitDy=0;exitPerimeter=0;" edge="1" parent="1" source="K9HIL502Y1lgaBaczekw-32" target="K9HIL502Y1lgaBaczekw-40">
          <mxGeometry width="160" relative="1" as="geometry">
            <mxPoint x="803" y="702" as="sourcePoint" />
            <mxPoint x="856" y="570" as="targetPoint" />
          </mxGeometry>
        </mxCell>
        <mxCell id="K9HIL502Y1lgaBaczekw-77" value="" style="endArrow=diamondThin;endFill=1;endSize=24;html=1;rounded=0;fontSize=12;curved=1;exitX=0.64;exitY=0;exitDx=0;exitDy=0;exitPerimeter=0;entryX=0.006;entryY=0.174;entryDx=0;entryDy=0;entryPerimeter=0;" edge="1" parent="1" source="K9HIL502Y1lgaBaczekw-31" target="K9HIL502Y1lgaBaczekw-35">
          <mxGeometry width="160" relative="1" as="geometry">
            <mxPoint x="712" y="671" as="sourcePoint" />
            <mxPoint x="777" y="530" as="targetPoint" />
          </mxGeometry>
        </mxCell>
        <mxCell id="K9HIL502Y1lgaBaczekw-78" value="" style="endArrow=diamondThin;endFill=1;endSize=24;html=1;rounded=0;fontSize=12;curved=1;exitX=0.075;exitY=1.038;exitDx=0;exitDy=0;exitPerimeter=0;entryX=0.886;entryY=0.006;entryDx=0;entryDy=0;entryPerimeter=0;" edge="1" parent="1" source="K9HIL502Y1lgaBaczekw-38" target="K9HIL502Y1lgaBaczekw-31">
          <mxGeometry width="160" relative="1" as="geometry">
            <mxPoint x="720" y="690" as="sourcePoint" />
            <mxPoint x="897" y="761" as="targetPoint" />
          </mxGeometry>
        </mxCell>
        <mxCell id="K9HIL502Y1lgaBaczekw-79" value="&lt;b&gt;CarController.Timer&lt;/b&gt;" style="html=1;whiteSpace=wrap;" vertex="1" parent="1">
          <mxGeometry x="906" y="748" width="110" height="25" as="geometry" />
        </mxCell>
        <mxCell id="K9HIL502Y1lgaBaczekw-80" value="" style="endArrow=diamondThin;endFill=1;endSize=24;html=1;rounded=0;fontSize=12;curved=1;exitX=1.014;exitY=0.677;exitDx=0;exitDy=0;exitPerimeter=0;entryX=0;entryY=0.5;entryDx=0;entryDy=0;" edge="1" parent="1" source="K9HIL502Y1lgaBaczekw-32" target="K9HIL502Y1lgaBaczekw-79">
          <mxGeometry width="160" relative="1" as="geometry">
            <mxPoint x="801" y="849" as="sourcePoint" />
            <mxPoint x="870" y="695" as="targetPoint" />
          </mxGeometry>
        </mxCell>
        <mxCell id="K9HIL502Y1lgaBaczekw-82" value="" style="endArrow=diamondThin;endFill=1;endSize=24;html=1;rounded=0;fontSize=12;curved=1;entryX=1.024;entryY=0.086;entryDx=0;entryDy=0;entryPerimeter=0;exitX=0.173;exitY=1.08;exitDx=0;exitDy=0;exitPerimeter=0;" edge="1" parent="1" source="K9HIL502Y1lgaBaczekw-79" target="K9HIL502Y1lgaBaczekw-34">
          <mxGeometry width="160" relative="1" as="geometry">
            <mxPoint x="525" y="498" as="sourcePoint" />
            <mxPoint x="685" y="498" as="targetPoint" />
          </mxGeometry>
        </mxCell>
        <mxCell id="K9HIL502Y1lgaBaczekw-83" value="" style="endArrow=diamondThin;endFill=1;endSize=24;html=1;rounded=0;fontSize=12;curved=1;exitX=1.031;exitY=0.122;exitDx=0;exitDy=0;exitPerimeter=0;entryX=0.022;entryY=0.027;entryDx=0;entryDy=0;entryPerimeter=0;" edge="1" parent="1" source="K9HIL502Y1lgaBaczekw-36" target="K9HIL502Y1lgaBaczekw-40">
          <mxGeometry width="160" relative="1" as="geometry">
            <mxPoint x="776" y="498" as="sourcePoint" />
            <mxPoint x="936" y="498" as="targetPoint" />
          </mxGeometry>
        </mxCell>
      </root>
    </mxGraphModel>
  </diagram>
  <diagram id="gVjOzvcwTic_hwjg-OLs" name="Sida-2">
    <mxGraphModel grid="1" page="1" gridSize="10" guides="1" tooltips="1" connect="1" arrows="1" fold="1" pageScale="1" pageWidth="827" pageHeight="1169" math="0" shadow="0">
      <root>
        <mxCell id="0" />
        <mxCell id="1" parent="0" />
        <mxCell id="BbWwP1K-H2VMIL-J5WrU-1" value="&amp;laquo;interface&amp;raquo;&lt;br&gt;&lt;b&gt;Name&lt;/b&gt;" style="html=1;whiteSpace=wrap;" vertex="1" parent="1">
          <mxGeometry x="240" y="380" width="110" height="50" as="geometry" />
        </mxCell>
      </root>
    </mxGraphModel>
  </diagram>
</mxfile>
